<svg id="vector" xmlns="http://www.w3.org/2000/svg" width="108" height="108" viewBox="0 0 108 108"><path fill="#1e2240" d="M76,34 H32 C28.7,34 26,36.7 26,40 V72 C26,75.3 28.7,78 32,78 H76 C79.3,78 82,75.3 82,72 V40 C82,36.7 79.3,34 76,34 Z" id="path_0"/><path fill="#1e2240" d="M46,30 H62 C63.1,30 64,30.9 64,32 V34 H44 V32 C44,30.9 44.9,30 46,30 Z" id="path_1"/><path fill="#000000" d="M76,34 H32 C28.7,34 26,36.7 26,40 V72 C26,75.3 28.7,78 32,78 H76 C79.3,78 82,75.3 82,72 V40 C82,36.7 79.3,34 76,34 Z" fill-opacity="0" stroke="#2a3060" stroke-width="1.5" id="path_2"/><path fill="#000000" d="M54,56 m-14,0 a14,14 0,1,0 28,0 a14,14 0,1,0 -28,0" fill-opacity="0" stroke="#4080e0" stroke-width="3" id="path_3"/><path fill="#151930" d="M54,56 m-10,0 a10,10 0,1,0 20,0 a10,10 0,1,0 -20,0" id="path_4"/><path fill="#000000" d="M54,56 m-7,0 a7,7 0,1,0 14,0 a7,7 0,1,0 -14,0" fill-opacity="0" stroke="#1a2050" stroke-width="1.5" id="path_5"/><path fill="none" d="M32,70 L74,42" stroke-linecap="round" stroke="#f5b800" stroke-width="3.5" id="path_6"/><path fill="#f5b800" d="M32,70 m-5,0 a5,5 0,1,0 10,0 a5,5 0,1,0 -10,0" id="path_7"/><path fill="#f5b800" d="M74,42 m-5,0 a5,5 0,1,0 10,0 a5,5 0,1,0 -10,0" id="path_8"/><path fill="#3b7fe0" d="M68,74 H80 C81.7,74 83,75.3 83,77 V85 C83,86.7 81.7,88 80,88 H68 C66.3,88 65,86.7 65,85 V77 C65,75.3 66.3,74 68,74 Z" id="path_9"/><path fill="#ffffff" d="M68.5,77 L68.5,85 M68.5,81 L72.5,81 M72.5,77 L72.5,85" id="path_10"/><path fill="#ffffff" d="M74,77 L74,85 M74,77 L77,77 C78.1,77 79,77.9 79,79 C79,80.1 78.1,81 77,81 L74,81 M76,81 L79,85" id="path_11"/></svg>